<?xml version="1.0" encoding="UTF-8" standalone="no"?>
<!-- Created with Inkscape (http://www.inkscape.org/) -->

<svg
   width="264.71561mm"
   height="103.22585mm"
   viewBox="0 0 264.71561 103.22585"
   version="1.1"
   id="svg1"
   xml:space="preserve"
   inkscape:version="1.4.2 (f4327f4, 2025-05-13)"
   sodipodi:docname="Imagotipo ThermoAir.svg"
   xmlns:inkscape="http://www.inkscape.org/namespaces/inkscape"
   xmlns:sodipodi="http://sodipodi.sourceforge.net/DTD/sodipodi-0.dtd"
   xmlns="http://www.w3.org/2000/svg"
   xmlns:svg="http://www.w3.org/2000/svg"><sodipodi:namedview
     id="namedview1"
     pagecolor="#ffffff"
     bordercolor="#000000"
     borderopacity="0.25"
     inkscape:showpageshadow="2"
     inkscape:pageopacity="0.0"
     inkscape:pagecheckerboard="0"
     inkscape:deskcolor="#d1d1d1"
     inkscape:document-units="mm"
     inkscape:zoom="0.97386896"
     inkscape:cx="587.86143"
     inkscape:cy="281.86544"
     inkscape:window-width="1920"
     inkscape:window-height="991"
     inkscape:window-x="-9"
     inkscape:window-y="-9"
     inkscape:window-maximized="1"
     inkscape:current-layer="layer1" /><defs
     id="defs1" /><g
     inkscape:label="Capa 1"
     inkscape:groupmode="layer"
     id="layer1"
     transform="translate(34.556781,-69.513929)"><path
       style="fill:#ffffff"
       d="m -28.301757,170.67135 0.657808,-2.05053 0.359286,-1.19062 0.359287,-1.19063 1.436143,-4.2952 1.436144,-4.2952 -0.136569,-0.13657 -0.136568,-0.13657 h -5.115278 -5.115277 v -0.23237 -0.23237 l 0.633725,-1.68586 0.633725,-1.68586 13.01094,-0.0686 13.0109403,-0.0687 -0.1896265,0.59782 -0.1896266,0.59782 -0.4493472,1.32291 -0.4493472,1.32292 -5.0204718,0.0717 -5.020472,0.0717 -0.733716,2.57415 -0.733715,2.57414 -1.008751,3.43958 -1.00875,3.43958 -0.480561,1.65365 -0.480562,1.65365 h -2.963584 -2.963583 z m 18.3512243,1.90522 v -0.16319 l 2.6340915,-8.79348 2.6340916,-8.79349 0.2697763,-0.70956 0.2697763,-0.70957 h 2.6832405 2.6832406 l -0.1364102,0.46302 -0.1364102,0.46302 -1.08507345,3.47186 -1.08507345,3.47185 v 0.17029 0.17029 l 7.4504306,-0.0703 7.4504306,-0.0703 0.959895,-3.57187 0.959895,-3.57188 0.180328,-0.46302 0.180329,-0.46302 h 2.892337 2.892338 l -0.471352,1.78594 -0.471351,1.78594 -2.148099,7.75129 -2.148099,7.75129 v 0.12006 0.12007 h -2.915457 -2.915458 l 0.166749,-0.72761 0.166749,-0.7276 0.764334,-3.00513 0.764333,-3.00513 v -0.10785 -0.10784 l -7.4501606,0.0703 -7.450161,0.0703 -0.9557863,3.70417 -0.9557864,3.70416 -2.8388437,0.0751 -2.8388437,0.0751 z m 34.6375477,-0.10757 -0.684326,-0.20739 -0.719978,-0.47175 -0.719978,-0.47174 -0.513926,-1.00738 -0.513925,-1.00738 v -1.24826 -1.24826 l 0.935832,-3.06176 0.935831,-3.06176 0.453231,-1.53266 0.453231,-1.53267 0.76206,-0.93316 0.76206,-0.93316 1.011885,-0.63878 1.011885,-0.63877 1.924904,-0.53342 1.924903,-0.53342 h 8.802713 8.802714 l -0.02018,0.33073 -0.02018,0.33073 -0.710276,1.71979 -0.710276,1.71979 -8.331526,0.1323 -8.331527,0.13229 -0.595748,0.34027 -0.595749,0.34027 -0.404125,0.96721 -0.404124,0.9672 -0.153289,0.61075 -0.153289,0.61076 h 8.627641 8.627641 v 0.30747 0.30748 l -0.445194,1.41231 -0.445194,1.41232 H 36.663127 28.07551 l -0.351483,0.46302 -0.351482,0.46302 -0.0084,0.8538 -0.0084,0.85379 0.715503,0.46912 0.715502,0.46912 8.015743,0.0672 8.015743,0.0672 0.04471,0.0651 0.04471,0.0651 -0.470087,1.91823 -0.470086,1.91823 -9.298061,-0.0228 -9.298062,-0.0227 z m 23.67158,-0.60703 0.166942,-0.8599 0.694055,-2.51354 0.694055,-2.51354 0.587067,-2.11667 0.587066,-2.11666 1.153255,-4.18015 1.153254,-4.18015 11.256233,0.0791 11.256232,0.0791 1.300048,0.66908 1.300048,0.66907 0.552036,0.7403 0.552035,0.74029 -0.0048,1.68358 -0.0048,1.68357 -0.797917,1.1353 -0.797916,1.1353 -0.784747,0.40196 -0.784746,0.40197 -0.09907,0.055 -0.09907,0.055 0.694458,0.82532 0.694458,0.82532 0.164503,0.65543 0.164502,0.65543 -0.15347,0.97782 -0.153471,0.97782 -0.729725,2.4474 -0.729726,2.4474 h -2.588675 -2.588675 v -0.35746 -0.35746 l 0.671935,-2.7157 0.671935,-2.7157 -0.389433,-0.59435 -0.389432,-0.59435 -0.844742,-0.16895 -0.844742,-0.16895 H 62.81854 55.749525 l -0.730235,2.71198 -0.730235,2.71198 -0.258896,1.12448 -0.258895,1.12448 h -2.789771 -2.78977 z m 23.854174,-10.63668 0.919227,-0.38408 0.278649,-0.7329 0.278648,-0.7329 -0.27708,-0.60813 -0.27708,-0.60812 -0.681934,-0.25927 -0.681935,-0.25927 h -7.074446 -7.074447 l -0.581245,1.80471 -0.581246,1.8047 v 0.17967 0.17967 h 7.416831 7.416831 z m 7.795027,11.18221 v -0.31437 l 2.142477,-7.02782 2.142478,-7.02782 0.658752,-0.87253 0.658751,-0.87254 1.371968,-0.91093 1.371967,-0.91094 2.156414,-0.54531 2.156413,-0.54531 8.553204,0.0798 8.5532,0.0798 1.16169,0.61968 1.16169,0.61967 0.45833,0.43866 0.45833,0.43866 0.46255,0.90875 0.46256,0.90874 -0.13984,1.73709 -0.13984,1.73709 -0.52591,1.5875 -0.52592,1.5875 -1.2551,4.29948 -1.25509,4.29948 h -2.74141 -2.74142 v -0.16831 -0.1683 l 1.33387,-4.39576 1.33387,-4.39576 0.52284,-1.72973 0.52284,-1.72973 -0.17357,-0.86788 -0.17358,-0.86787 -0.55865,-0.35909 -0.55866,-0.35908 -1.90825,-0.0828 -1.90826,-0.0828 -0.24181,0.26132 -0.24181,0.26133 -0.54208,1.71979 -0.54207,1.71979 -1.17798,3.70417 -1.177987,3.70417 -0.6099,1.91823 -0.6099,1.91823 h -2.890469 -2.89047 l 0.15606,-0.40669 0.15606,-0.40669 0.385888,-1.37925 0.385887,-1.37925 1.612224,-5.65729 1.612224,-5.6573 -0.08064,-0.0806 -0.08064,-0.0806 -2.375957,-0.0693 -2.375957,-0.0694 -0.576912,0.31663 -0.576913,0.31664 -0.57259,0.80413 -0.572591,0.80412 -0.864001,2.83443 -0.864001,2.83443 -1.011895,3.63803 -1.011895,3.63802 h -2.729288 -2.729288 z m 39.290624,-0.0482 -1.05833,-0.34224 -0.83654,-0.43605 -0.83653,-0.43606 -0.55253,-0.70243 -0.55253,-0.70242 v -0.99811 -0.9981 l 1.47481,-4.8532 1.4748,-4.85319 0.51972,-0.84139 0.51971,-0.8414 0.95481,-0.83833 0.95481,-0.83834 1.21786,-0.5662 1.21786,-0.56621 9.65729,-0.0877 9.65729,-0.0877 1.53107,0.46021 1.53107,0.46021 0.94507,1.04608 0.94508,1.04609 -0.1392,1.62106 -0.13919,1.62106 -1.1654,4.48252 -1.16541,4.48253 -0.98017,1.12677 -0.98017,1.12677 -1.77248,0.873 -1.77247,0.87299 -9.79599,0.056 -9.79598,0.056 z m 17.93307,-3.85965 1.5289,-0.2504 0.73647,-0.52442 0.73647,-0.52441 0.33636,-1.00959 0.33637,-1.00958 0.76708,-2.51354 0.76708,-2.51354 0.005,-0.60734 0.005,-0.60734 -0.64943,-0.64943 -0.64943,-0.64943 h -7.79694 -7.79693 l -0.79504,0.66898 -0.79504,0.66898 -0.40121,1.11696 -0.4012,1.11695 -0.67614,2.22548 -0.67614,2.22549 v 0.84236 0.84237 l 0.50074,0.45316 0.50073,0.45316 0.75604,0.22656 0.75603,0.22656 5.68854,0.0212 5.68854,0.0212 z m 27.97213,3.99879 v -0.0912 l 1.50084,-1.5625 1.50084,-1.5625 h 6.56895 6.56896 v -0.11053 -0.11054 l -0.90739,-3.65977 -0.9074,-3.65978 -0.1863,-1.05834 -0.1863,-1.05833 -0.36599,-0.72312 -0.366,-0.72313 -0.77613,-0.40135 -0.77613,-0.40136 h -0.50166 -0.50165 l -0.77712,0.38768 -0.77712,0.38768 -1.18176,1.38999 -1.18176,1.39 -1.14094,1.33118 -1.14094,1.33118 -0.59548,0.66146 -0.59548,0.66146 -2.7615,3.17304 -2.76149,3.17304 -0.54558,0.60707 -0.54558,0.60708 -2.67326,-0.076 -2.67326,-0.0759 1.73046,-1.98437 1.73046,-1.98438 0.80717,-0.92604 0.80717,-0.92604 1.07808,-1.19302 1.07809,-1.19301 1.5875,-1.82924 1.5875,-1.82925 0.52916,-0.59118 0.52917,-0.59117 1.85208,-2.11605 1.85209,-2.11605 0.92604,-0.48822 0.92604,-0.48823 0.13293,-0.1742 0.13292,-0.1742 2.01285,-0.41576 2.01284,-0.41577 1.37847,0.35757 1.37848,0.35758 0.90159,0.87385 0.90159,0.87386 0.39179,1.21062 0.39179,1.21062 1.7379,7.01146 1.73789,7.01145 0.12204,0.39688 0.12205,0.39687 h -10.84475 -10.84476 z m 24.87026,-0.0517 5.8e-4,-0.14281 0.79584,-2.63531 0.79584,-2.63532 0.5591,-1.98437 0.55911,-1.98438 0.22445,-0.52916 0.22445,-0.52917 1.11439,-3.93166 1.11439,-3.93165 0.31527,-0.31528 0.31528,-0.31527 2.08417,0.0632 2.08416,0.0632 0.0477,0.0165 0.0477,0.0165 -0.25443,0.85989 -0.25443,0.8599 -0.95459,3.57187 -0.95458,3.57188 -0.5983,2.24896 -0.59831,2.24895 -0.58347,2.11667 -0.58348,2.11667 -0.13187,0.57833 -0.13188,0.57834 -2.61882,0.0831 -2.61881,0.0831 z m 31.86667,-0.25406 0.11109,-0.39688 0.56532,-2.3164 0.56531,-2.3164 -0.0836,-0.72017 -0.0836,-0.72018 -0.66146,-0.33296 -0.66146,-0.33296 -7.68015,-0.004 -7.68014,-0.004 -0.62431,2.66051 -0.6243,2.66051 -0.33549,0.97751 -0.33548,0.97751 -2.703,0.0758 -2.70299,0.0757 0.19305,-0.47263 0.19304,-0.47263 1.00307,-3.70417 1.00307,-3.70416 1.25398,-4.49792 1.25399,-4.49792 0.12547,-0.7276 0.12546,-0.7276 0.3007,-0.0101 0.3007,-0.0101 10.90257,0.0199 10.90256,0.0199 0.7391,0.38552 0.7391,0.38552 0.28123,0.002 0.28123,0.002 0.7771,0.81112 0.77711,0.81112 v 1.90086 1.90085 l -0.79375,1.11934 -0.79375,1.11933 -0.8599,0.29025 -0.85989,0.29025 v 0.20305 0.20306 l 0.54151,0.49007 0.54152,0.49006 0.40781,0.85941 0.40782,0.8594 -0.54213,2.19727 -0.54212,2.19726 -0.3666,1.05834 -0.3666,1.05833 -2.55165,0.13229 -2.55164,0.13229 z m 1.66984,-11.06437 0.8599,-0.61333 v -1.03422 -1.03421 l -0.62141,-0.40717 -0.62141,-0.40716 -7.50524,0.0703 -7.50524,0.0703 -0.45615,1.45521 -0.45614,1.4552 -0.0162,0.61628 -0.0162,0.61627 7.73906,-0.0871 7.73907,-0.0871 z m -103.72656,-17.04761 0.25332,-0.33073 3.52642,-4.56406 3.52641,-4.56406 h 31.83911 31.83912 v -0.17587 -0.17587 l -1.02211,-1.87465 -1.02211,-1.87466 -1.52893,-2.91041 -1.52893,-2.91042 -2.04288,-3.83646 -2.04287,-3.83646 -1.12787,-2.11666 -1.12787,-2.11667 -1.58841,-3.04271 -1.58841,-3.04271 -0.75258,-1.37261 -0.75258,-1.37262 -1.49718,-2.86072 -1.49718,-2.860712 -2.17957,-4.101042 -2.17958,-4.101042 -2.43857,-4.564062 -2.43857,-4.564063 -0.17555,0.01634 -0.17554,0.01634 -5.82084,7.543326 -5.82083,7.543327 -2.24896,2.844787 -2.24896,2.844781 -1.19062,1.55971 -1.19063,1.55971 -3.52858,4.50615 -3.52859,4.50614 -2.34648,3.04271 -2.34648,3.04271 -1.66556,2.14505 -1.66556,2.14504 -2.77812,3.53836 -2.77812,3.53836 -0.71268,0.93118 -0.71267,0.93118 -1.66858,2.15522 -1.66857,2.15522 -2.60858,3.33488 -2.60858,3.33489 -13.134132,-0.004 -13.134127,-0.004 -3.175,-0.26275 -3.175,-0.26276 -1.933924,-0.5303 -1.933923,-0.53031 -1.316722,-0.66723 -1.316722,-0.66723 -1.040954,-0.94044 -1.040953,-0.94044 -0.711017,-1.45327 -0.711017,-1.45326 -0.03499,-2.1485 -0.03499,-2.14851 -4.222808,-0.82999 -4.222809,-0.83 -2.513541,-0.72951 -2.513542,-0.72951 -1.719791,-0.60727 -1.719792,-0.60727 -5.159374,-1.99224 -5.159375,-1.99225 -3.175,-0.93551 -3.175,-0.93551 -2.38125,-0.52507 -2.38125,-0.52508 -2.740012,-0.27995 -2.740013,-0.27996 -3.213112,0.002 -3.213112,0.002 -2.190617,0.25188 -2.190617,0.25188 -2.919616,0.81037 -2.9196159,0.81037 -2.4498947,1.14486 -2.4498947,1.14484 -2.2729526,1.49686 -2.27295254,1.49684 -2.39632586,2.11488 c -0.8692894,0.75122 -1.7107371,1.53494 -2.587951,2.27696 -0.4026792,-0.40711 -1.0297867,-1.03197 -4.2860891,-4.2761 0.4430758,-0.42594 0.9009118,-0.8363 1.3537114,-1.25185 l 1.1244791,-1.03197 1.8520832,-1.52486 1.8520832,-1.52487 1.85208329,-1.2504 1.85208321,-1.2504 3.1749999,-1.5445 3.1749998,-1.54449 1.9758611,-0.68791 1.9758612,-0.6879 3.315805,-0.69618 3.315805,-0.69618 5.688542,0.0177 5.688541,0.0177 1.984375,0.39964 1.984375,0.39964 1.190625,0.17796 1.190625,0.17795 1.984375,0.52959 1.984375,0.52959 2.228446,0.63882 2.228446,0.63882 2.930928,1.07756 2.930929,1.07757 0.264583,0.19455 0.264584,0.19455 2.910416,1.082 2.910417,1.08201 2.116666,0.64902 2.116667,0.64903 1.455208,0.40709 1.455208,0.4071 2.100965,0.45084 2.100965,0.45084 2.477616,0.31417 2.477617,0.31416 1.320905,-2.18682 1.320904,-2.18683 3.030201,-3.87553 3.030201,-3.87553 v -0.21337 -0.21336 l -3.505729,-0.0214 -3.505728,-0.0214 -3.836459,-0.53269 -3.836458,-0.53269 -1.984375,-0.41749 -1.984375,-0.41749 -2.778124,-0.79662 -2.778125,-0.79662 -1.322917,-0.37107 -1.322916,-0.37106 -0.833737,-0.39512 -0.833736,-0.39512 h -0.203838 -0.203837 l -1.740551,-0.67998 -1.740551,-0.67997 -0.79375,-0.35295 -0.79375,-0.35296 -2.38125,-0.79074 -2.38125,-0.79074 -2.778125,-0.79449 -2.778125,-0.79449 -2.645833,-0.53747 -2.645833,-0.53746 -2.778125,-0.35011 -2.778125,-0.3501 -3.968749,0.0197 -3.96875,0.0197 -2.910417,0.45655 -2.910416,0.45654 -1.455208,0.40604 -1.4552088,0.40604 -1.5874999,0.54028 -1.5874999,0.54027 -1.7197916,0.78921 -1.7197915,0.78921 -1.5875,0.94533 -1.58749988,0.94534 -1.58749992,1.20369 -1.5874999,1.20368 -1.0746136,0.98472 -1.0746136,0.98472 -1.9680946,-1.95845 -1.9680946,-1.95844 v -0.26598 -0.26597 l 1.0025639,-1.05801 1.0025639,-1.05801 2.7689762,-1.97496 2.7689763,-1.97497 2.84304284,-1.44666 2.84304286,-1.446665 2.9104165,-0.954781 2.9104165,-0.95478 2.6458328,-0.534432 2.645834,-0.534431 4.365624,-0.283052 4.365625,-0.283053 3.439583,0.300212 3.439583,0.300211 3.295885,0.533678 3.295885,0.533678 0.179292,0.110809 0.179293,0.11081 3.139406,0.808521 3.139405,0.808522 3.042709,1.072906 3.042708,1.072917 1.09127,0.48882 1.09127,0.48883 2.348313,0.8284 2.348313,0.82839 1.5875,0.5122 1.5875,0.51221 3.175,0.7706 3.175,0.77061 2.248958,0.40883 2.248958,0.40883 4.233333,0.29983 4.233333,0.29981 3.52437,-0.17521 3.52437,-0.17522 0.375525,-0.14411 0.375524,-0.1441 3.101456,-4.00763 3.101456,-4.007631 1.266879,-1.574245 1.266878,-1.574246 v -0.176165 -0.176165 l -1.124479,0.216941 -1.124479,0.216942 -4.101042,0.442327 -4.101041,0.442328 -4.7625,-0.174414 -4.7625,-0.174414 -2.910416,-0.364352 -2.910417,-0.364352 -2.258503,-0.398703 -2.258503,-0.398702 -1.710247,-0.44296 -1.710247,-0.442959 -3.042708,-0.874805 -3.042708,-0.874806 -2.513541,-0.934718 -2.513542,-0.934717 -1.455208,-0.56774 -1.455208,-0.567739 -3.175,-1.050927 -3.175,-1.050927 -3.96875,-1.023858 -3.96875,-1.023858 -2.513541,-0.405258 -2.513542,-0.405258 -2.614274,-0.314918 -2.614274,-0.314918 -5.323226,0.150799 -5.323225,0.1508 -2.777666,0.547694 -2.777666,0.547693 -2.9108753,0.959139 -2.9108754,0.959139 -2.11666651,1.053948 -2.11666659,1.053947 -1.7197915,1.043314 -1.7197916,1.043313 -0.4705526,0.317025 -0.4705526,0.317025 -0.1909057,-0.277348 -0.1909057,-0.277349 -1.5213541,-2.035198 -1.5213544,-2.035198 0.0034,-0.200995 0.0034,-0.200995 1.4944306,-0.926042 1.4944309,-0.926041 0.9100065,-0.605358 0.9100065,-0.605358 1.8062447,-0.909611 1.8062448,-0.90961 2.7541913,-1.047336 2.7541913,-1.047337 2.7551983,-0.662132 2.7551984,-0.662133 3.1749997,-0.456554 3.175,-0.456554 4.365625,0.0018 4.365624,0.0018 3.96824,0.462988 3.96824,0.462989 0.168309,0.10402 0.168309,0.104021 2.874909,0.548491 2.874909,0.548492 4.497917,1.321315 4.497916,1.321315 1.5875,0.549763 1.5875,0.549762 2.910417,1.121727 2.910416,1.121726 2.513542,0.823844 2.513541,0.823844 3.704167,0.911295 3.704166,0.911295 2.778125,0.407466 2.778125,0.407467 3.704166,0.298834 3.704167,0.298835 3.571875,-0.17602 3.571874,-0.17602 3.63638,-0.510976 3.63638,-0.510976 2.569943,-0.683796 2.569948,-0.683797 0.71664,-0.309143 0.71664,-0.309143 2.93277,-3.748752 2.93276,-3.748752 v -0.153852 -0.153853 l -5.75469,-0.03449 -5.754688,-0.03449 -9.804261,-0.03923 3.391644,-4.811094 3.459566,-4.522432 18.806729,-0.184314 18.80674,-0.184315 10.51201,0.02728 10.512,0.02728 0.1146,0.185425 0.1146,0.185425 -2.15994,2.263626 -2.15994,2.263625 -2.24896,2.43118 -2.24896,2.431181 -10.50529,-0.0023 -10.5053,-0.0023 -1.66052,2.182813 -1.66052,2.182812 -2.07578,2.645834 -2.07578,2.645833 -1.22023,1.5875 -1.22023,1.5875 -4.4986,5.820833 -4.49859,5.820829 -1.40468,1.78594 -1.40468,1.78593 -1.409686,1.78594 -1.409683,1.78594 -4.925331,6.35 -4.925331,6.35 -2.255358,2.86241 -2.255358,2.86241 -0.173424,0.92443 -0.173424,0.92443 0.135744,1.20432 0.135745,1.20432 0.509189,0.69738 0.509189,0.69738 1.041259,0.52917 1.041259,0.52916 9.049359,0.0872 9.049361,0.0872 3.29977,-4.18827 3.29977,-4.18827 5.0703,-6.48229 5.0703,-6.48229 1.35193,-1.71979 1.35193,-1.7198 1.40312,-1.78593 1.40312,-1.78594 1.41261,-1.78594 1.41261,-1.78594 5.13582,-6.5625 5.13583,-6.562512 2.11667,-2.731051 2.11666,-2.731051 4.18386,-5.315134 4.18385,-5.315133 1.35187,-1.215442 1.35186,-1.215441 1.74032,-1.015182 1.74033,-1.015183 1.4552,-0.490888 1.45521,-0.490888 h 2.64584 2.64583 l 1.45521,0.690581 1.45521,0.690582 1.26377,1.124002 1.26376,1.124002 0.74325,1.095833 0.74325,1.095833 2.65502,5.159375 2.65502,5.159375 1.52033,2.910417 1.52032,2.910416 1.72283,3.307292 1.72282,3.307292 1.38866,2.645825 1.38865,2.64583 3.50666,6.74688 3.50666,6.74687 1.2493,2.38125 1.24931,2.38125 2.35436,4.49792 2.35436,4.49792 v 2.51755 2.51756 l -0.90894,1.84807 -0.90895,1.84807 -1.34001,1.33917 -1.34002,1.33917 -1.54435,0.72998 -1.54435,0.72998 -1.76294,0.37365 -1.76294,0.37365 -36.08188,0.005 -36.08187,0.005 z"
       id="path2"
       sodipodi:nodetypes="ccccccccccccccccccccccccccccccccccccccccccccccccccccccccccccccccccccccccccccccccccccccccccccccccccccccccccccccccccccccccccccccccccccccccccccccccccccccccccccccccccccccccccccccccccccccccccccccccccccccccccccccccccccccccccccccccccccccccccccccccccccccccccccccccccccccccccccccccccccccccccccccccccccccccccccccccccccccccccccccccccccccccccccccccccccccccccccccccccccccccccccccccccccccccccccccccccccccccccccccccccccccccccccccccccccccccccccccccccccccccccccccccccccccccccccccccccccccccccccccccccccccccccccccccccccccccccccccccccccccccccccccccccccccccccccccccccccccccccccccccccccccccccccccccccccccccccccccccccccccccccccccccccccccccccccccccccccccccccccccccccccccccccccccccccccccccccccccccccccccccccccccccccccccccccccccccccccccccccccccccccccccccccccccccccccccccccccccccccccccccccccccccccccccccccccccccccccccccccccccccccccccccccccccccccccccccccccccccccccccccccccccccccccccccccccccccccccccccccccccccccccccccccccccccc" /></g></svg>
